/* XPM */
static char * neo_256_xpm[] = {
"48 48 293 2",
"  	c None",
". 	c #000000",
"+ 	c #1B2214",
"@ 	c #78995B",
"# 	c #7FA261",
"$ 	c #80A462",
"% 	c #64804C",
"& 	c #7B9D5E",
"* 	c #86A967",
"= 	c #91B671",
"- 	c #96BE76",
"; 	c #97BE76",
"> 	c #92B872",
", 	c #88AB69",
"' 	c #27321E",
") 	c #010101",
"! 	c #8CB06C",
"~ 	c #9CC47A",
"{ 	c #A7D184",
"] 	c #ACD789",
"^ 	c #ADD98A",
"/ 	c #A8D386",
"( 	c #9EC77D",
"_ 	c #8FB56F",
": 	c #020402",
"< 	c #2A768A",
"[ 	c #2B788C",
"} 	c #2B778B",
"| 	c #354328",
"1 	c #89AD6A",
"2 	c #9DC57B",
"3 	c #B8E593",
"4 	c #BDEB97",
"5 	c #BAE794",
"6 	c #B0DD8C",
"7 	c #A1CA7F",
"8 	c #8EB46E",
"9 	c #010100",
"0 	c #2A778B",
"a 	c #2A788C",
"b 	c #297286",
"c 	c #95BB74",
"d 	c #A9D486",
"e 	c #C2F29C",
"f 	c #C5F69F",
"g 	c #C6F69F",
"h 	c #C3F49D",
"i 	c #BCEA96",
"j 	c #AED98A",
"k 	c #9AC279",
"l 	c #83A665",
"m 	c #9CC57B",
"n 	c #B1DD8D",
"o 	c #BFEE99",
"p 	c #C6F7A0",
"q 	c #C7F8A0",
"r 	c #C8F9A1",
"s 	c #C8F8A1",
"t 	c #C1F19B",
"u 	c #B4E290",
"v 	c #A2CB80",
"w 	c #252F1D",
"x 	c #297487",
"y 	c #B3E08F",
"z 	c #C1F09B",
"A 	c #C9FAA2",
"B 	c #B6E492",
"C 	c #A4CD81",
"D 	c #1D2416",
"E 	c #2B798D",
"F 	c #22606F",
"G 	c #0E120B",
"H 	c #7EA061",
"I 	c #7EA161",
"J 	c #81A463",
"K 	c #68854F",
"L 	c #85A866",
"M 	c #B0DC8C",
"N 	c #C7F9A0",
"O 	c #C7F7A0",
"P 	c #B4E18F",
"Q 	c #A1CA7E",
"R 	c #000202",
"S 	c #7D9F60",
"T 	c #88AC69",
"U 	c #8AAF6C",
"V 	c #8BB06D",
"W 	c #8BAF6B",
"X 	c #86AA67",
"Y 	c #82A564",
"Z 	c #749358",
"` 	c #94BA73",
" .	c #A8D385",
"..	c #B7E593",
"+.	c #C4F59E",
"@.	c #BAE995",
"#.	c #A0C97D",
"$.	c #222B1A",
"%.	c #8AAF6B",
"&.	c #8FB570",
"*.	c #93B972",
"=.	c #97BD76",
"-.	c #95BC75",
";.	c #94BA74",
">.	c #91B771",
",.	c #8CB16D",
"'.	c #87AB68",
").	c #83A664",
"!.	c #7FA162",
"~.	c #9AC179",
"{.	c #AAD587",
"].	c #B5E391",
"^.	c #BAE895",
"/.	c #B7E492",
"(.	c #9CC57C",
"_.	c #0F140C",
":.	c #7FA262",
"<.	c #8DB26E",
"[.	c #98C077",
"}.	c #9FC87E",
"|.	c #A1C97F",
"1.	c #9DC67C",
"2.	c #90B570",
"3.	c #84A866",
"4.	c #020301",
"5.	c #637E4D",
"6.	c #98BF77",
"7.	c #A3CD81",
"8.	c #A5CF82",
"9.	c #A2CC7F",
"0.	c #86AA68",
"a.	c #96BC75",
"b.	c #A1CB7F",
"c.	c #A5CF83",
"d.	c #A8D285",
"e.	c #A6D083",
"f.	c #A3CC80",
"g.	c #242D1B",
"h.	c #6D8955",
"i.	c #526740",
"j.	c #78985B",
"k.	c #84A765",
"l.	c #8DB26D",
"m.	c #ADD889",
"n.	c #9FC87D",
"o.	c #010201",
"p.	c #7FA161",
"q.	c #92B972",
"r.	c #9BC37A",
"s.	c #A3CC81",
"t.	c #AFDB8B",
"u.	c #B5E290",
"v.	c #ACD788",
"w.	c #A6CF82",
"x.	c #9EC67C",
"y.	c #80A263",
"z.	c #2A788B",
"A.	c #12170E",
"B.	c #A0C97E",
"C.	c #B4E190",
"D.	c #B9E694",
"E.	c #BDEC98",
"F.	c #BAE894",
"G.	c #88AC68",
"H.	c #5D7646",
"I.	c #9BC379",
"J.	c #B3DF8F",
"K.	c #B8E693",
"L.	c #C0EF9A",
"M.	c #BEED98",
"N.	c #AEDA8A",
"O.	c #94BB74",
"P.	c #8AAF6A",
"Q.	c #7A9B5D",
"R.	c #87AC69",
"S.	c #BBE996",
"T.	c #C4F49D",
"U.	c #C4F39D",
"V.	c #B1DC8C",
"W.	c #96BD76",
"X.	c #77985B",
"Y.	c #A6D184",
"Z.	c #B6E392",
"`.	c #BCEA97",
" +	c #C5F49F",
".+	c #B1DE8D",
"++	c #455835",
"@+	c #BBE995",
"#+	c #C2F19C",
"$+	c #A9D386",
"%+	c #8BB06C",
"&+	c #85A967",
"*+	c #90B670",
"=+	c #ABD687",
"-+	c #B2DE8E",
";+	c #BDEC97",
">+	c #B9E794",
",+	c #A5D083",
"'+	c #93BA73",
")+	c #8CB16C",
"!+	c #000100",
"~+	c #96BD75",
"{+	c #9FC77D",
"]+	c #B4E08F",
"^+	c #BBEA96",
"/+	c #B0DC8B",
"(+	c #99C178",
"_+	c #556C41",
":+	c #3C4D2E",
"<+	c #92B772",
"[+	c #A4CE82",
"}+	c #87AA68",
"|+	c #9AC37A",
"1+	c #ABD688",
"2+	c #AFDC8B",
"3+	c #AFDA8B",
"4+	c #A4CE81",
"5+	c #8EB46F",
"6+	c #2D3923",
"7+	c #8CB26E",
"8+	c #A7D285",
"9+	c #A0C97F",
"0+	c #90B56F",
"a+	c #799A5E",
"b+	c #89AE6A",
"c+	c #93B973",
"d+	c #8EB36E",
"e+	c #688451",
"f+	c #51663E",
"g+	c #91B770",
"h+	c #688450",
"i+	c #90B66F",
"j+	c #495D38",
"k+	c #143842",
"l+	c #2B788D",
"m+	c #2C7B8F",
"n+	c #1D525F",
"o+	c #5E7747",
"p+	c #7DA05F",
"q+	c #587143",
"r+	c #0F130B",
"s+	c #7B9C5E",
"t+	c #85A966",
"u+	c #6E8D54",
"v+	c #8AAE6B",
"w+	c #90B671",
"x+	c #83A564",
"y+	c #465935",
"z+	c #286F82",
"A+	c #2A7689",
"B+	c #5C7546",
"C+	c #87AC68",
"D+	c #99C179",
"E+	c #1A2215",
"F+	c #7EA060",
"G+	c #A2CC81",
"H+	c #ACD88A",
"I+	c #A2CB7F",
"J+	c #576E43",
"K+	c #276F82",
"L+	c #9BC47A",
"M+	c #B3DF8E",
"N+	c #B1DE8E",
"O+	c #80A362",
"P+	c #A0C87E",
"Q+	c #030402",
"R+	c #B7E592",
"S+	c #BBE994",
"T+	c #020201",
"U+	c #9CC47B",
"V+	c #91B772",
"W+	c #7A9C5E",
"X+	c #88AD69",
"Y+	c #9BC47B",
"Z+	c #8FB46F",
"`+	c #4F653D",
" @	c #83A766",
".@	c #A4CF82",
"+@	c #ACD889",
"@@	c #ABD788",
"#@	c #4C623A",
"$@	c #87AB69",
"%@	c #A5CE82",
"&@	c #8DB16D",
"*@	c #060804",
"=@	c #627D4B",
"-@	c #26311D",
";@	c #8BAF6C",
">@	c #8CB26D",
",@	c #4B603A",
"'@	c #76965B",
")@	c #77975C",
"!@	c #3D4D2F",
"                                                                                                ",
"                                                                                                ",
"                    . + @ # $ % .                                                               ",
"                  . & * = - ; > , '                                                             ",
"                ) & ! ~ { ] ^ / ( _ :     < [ }                                                 ",
"                | 1 2 ^ 3 4 4 5 6 7 8 9   0 0 a     b                                           ",
"                $ c d 5 e f g h i j k .   0 [ 0   0 [ [                                         ",
"              . l m n o p q r s t u v w     x     0 0 0     . . . . . . .                       ",
"              . * ( y z s r A r e B C D           E 0 F . G & H I # I J K . .                   ",
"                L ~ M o p N q O z P Q .             R . S J L T U V W 1 X Y Z .                 ",
"                ) `  ...t +.+.e @.] #..           . $.I L %.&.*.c =.-.;.>.,.'.)..               ",
"                  !.~.{.].^.@./.j (..           . _.:.'.<.` [.2 }.|.}.1.k -.2.1 3.4.            ",
"                  . 5.6.7.d {.8.9..             . S 0.8 a.~ b.c.d.d / e.f.1.6.>.1 H .           ",
"                      . g.h.i.. .             . j.k.l.a.m 7./ m.M n M j {.8.n.6.2.'..           ",
"                      0                       o.p.1 q.r.s.{.t.y /.3 ..u.n v.w.x.a.,.y..         ",
"                    z.[ 0                     A.l <.; B. .t.C.D.i E.4 F.B n {.s.k >.G.o.        ",
"                    0 0 0                   . H.0.>.I.7.] J.K.4 L.t z M.F.u.N.{ 1.O.P..         ",
"                      [                     . Q.R.*.1.e.N.].S.o e T.U.z 4 ..V.d B.W.,..         ",
"                                            . X.T *.1.Y.t.Z.`.z T. ++.t M.K..+{.7 ; l..         ",
"                    0 0 0                     ++R.> 2 c.^ u.@+o #+T.e L.`./.M $+}.-.%+o.        ",
"                    0 0 [                     . &+*+k 7.=+-+..`.o z L.;+>+P ^ ,+1.'+)+.         ",
"                    0 [ 0                     !+Y l.~+{+{ ^ ]+..@+`.^+D.u./+d v (+2._+.         ",
"                                              . :+T <+(+b./ ^ -+u.B ].]+t.{.[+2 O.%..           ",
"                        0                       . }+! ` |+b.{ 1+N.2+3+]  .4+2 W.5+6+.           ",
"                      0 0 0                       . L 7+` k n.C e.8+{ [+9+~ ~+0+a+.             ",
"                      0 [ [                         . b+! <+=.k 2 x.1.r.6.c+d+e+.               ",
"                      0 [                             4.f+}+l.*+*.'+*.>.8 g+. .                 ",
"                            [                           . 9 . h+i+_ T j+. .                     ",
"                          0 0 [                               . . . .                           ",
"                          0 0 [                                 k+l+                            ",
"                            m+n+. . o+p+Q.q+. .                 0 0 [                           ",
"                              r+s+# Y 3.t+k.J J .               [ 0 0                           ",
"                            u+I L v+d+2.w+_ ,.T x+y+        z+  A+[                             ",
"                          B+# C+d+` 6.(+k D+=.>.%+3.E+    E 0 [                                 ",
"                        . F+'._ =.~ 7 C [+G+n.k ` ! Y .   0 0 [ 0                               ",
"                        & l <.a.1.[+d v.H+1+{ I+k > 1 J+  K+0 [                                 ",
"                      4.S T > L+7.{.t.M+y N+^ d.9+6.5+'.                                        ",
"                      . O+%+~+P+d.t.u 3 3 B M+] 8.L+>.C+Q+                                      ",
"                      . J l.6.b.{.-+R+S+^+>+u.t.8+x.'+1 T+                                      ",
"                      . J l.6.b.{.-+R+S+^+>+u.t.8+x.'+1 Q+                                      ",
"                      T+O+%+W.}. .t.u.K.D./.J.m.8.U+V+%.                                        ",
"                        W+X+*.Y+C =+M J.P -+j  .7 [.Z+`+                                        ",
"                        .  @<.W.x..@d +@^ @@8+v I.*.1 o.                                        ",
"                          #@$@&.; 2 b.%@c.7.}.k O.&@*@                                          ",
"                            =@T 8 ;.[.k r.k ; > ,.-@                                            ",
"                              . '.;@d+= >.*+>@d+.                                               ",
"                                  . ,@'@)@!@.                                                   ",
"                                                                                                "};
