/* XPM */
static char * neo_xpm[] = {
"16 16 78 1",
" 	c None",
".	c #1D6D82",
"+	c #00526C",
"@	c #00556D",
"#	c #00596F",
"$	c #409381",
"%	c #308681",
"&	c #005169",
"*	c #004E6C",
"=	c #6CB78D",
"-	c #DDFFA5",
";	c #D5FFA4",
">	c #43938A",
",	c #709BAC",
"'	c #3D7D8E",
")	c #015570",
"!	c #004D6A",
"~	c #96D79C",
"{	c #D9FFA5",
"]	c #5CAA90",
"^	c #1C5E7A",
"/	c #6295A6",
"(	c #489787",
"_	c #71B98D",
":	c #59A78D",
"<	c #0D6476",
"[	c #247B7E",
"}	c #98D99A",
"|	c #89CE9B",
"1	c #5AAB85",
"2	c #D5FFA3",
"3	c #A8E5A1",
"4	c #236C82",
"5	c #548EA1",
"6	c #156D77",
"7	c #C7FBA2",
"8	c #CCFCA2",
"9	c #C9FAA2",
"0	c #246E81",
"a	c #5E92A0",
"b	c #CFFEA4",
"c	c #76BE96",
"d	c #1B687D",
"e	c #0A6175",
"f	c #B5EFA3",
"g	c #3D9188",
"h	c #045A70",
"i	c #7CA5B2",
"j	c #2B8082",
"k	c #AEE8A2",
"l	c #C2F6A4",
"m	c #60AD91",
"n	c #3A7A8D",
"o	c #5D91A4",
"p	c #005970",
"q	c #428C91",
"r	c #1A707F",
"s	c #095C74",
"t	c #74BB92",
"u	c #AFE79A",
"v	c #97D79A",
"w	c #18707B",
"x	c #1C6078",
"y	c #80A6B3",
"z	c #1C667C",
"A	c #4E9F85",
"B	c #4E8B9D",
"C	c #317588",
"D	c #83C896",
"E	c #CBFCA2",
"F	c #C5F9A5",
"G	c #096475",
"H	c #4B9C8B",
"I	c #D1FFA3",
"J	c #99DA9E",
"K	c #A4DF9E",
"L	c #88CB99",
"M	c #136A79",
"................",
".+@#$%+&&@@@@@@.",
".@*=-;>,')!*@#@.",
".@+~{-]^/(_:<+@.",
".@+[}|<!12;{3<+.",
".)@45!+67899{]!.",
".@@0a&+[b999;c*.",
".@@da&@ef;98{g!.",
".@#hi#@+jk9lm)@.",
".@#&no+)!pqr+@@.",
".@@@stuvwxyz@@@.",
".@#*A{b{}BC&##@.",
".@#*D;9EFG&@#@@.",
".@@*H{I{J)#@##@.",
".@@@):KLM+@@@@@.",
"................"};
